<svg width="26" height="26" viewBox="0 0 26 26" fill="none" xmlns="http://www.w3.org/2000/svg">
<g clip-path="url(#clip0_1931_60334)">
<path d="M10.647 5.41667L8.48032 7.58333H4.33332V20.5833H21.6667V7.58333H17.5197L15.353 5.41667H10.647ZM9.74999 3.25H16.25L18.4167 5.41667H22.75C23.0373 5.41667 23.3129 5.5308 23.516 5.73397C23.7192 5.93713 23.8333 6.21268 23.8333 6.5V21.6667C23.8333 21.954 23.7192 22.2295 23.516 22.4327C23.3129 22.6359 23.0373 22.75 22.75 22.75H3.24999C2.96267 22.75 2.68712 22.6359 2.48396 22.4327C2.28079 22.2295 2.16666 21.954 2.16666 21.6667V6.5C2.16666 6.21268 2.28079 5.93713 2.48396 5.73397C2.68712 5.5308 2.96267 5.41667 3.24999 5.41667H7.58332L9.74999 3.25ZM13 19.5C11.4197 19.5 9.90422 18.8722 8.78681 17.7548C7.66941 16.6374 7.04166 15.1219 7.04166 13.5417C7.04166 11.9614 7.66941 10.4459 8.78681 9.32849C9.90422 8.21108 11.4197 7.58333 13 7.58333C14.5802 7.58333 16.0958 8.21108 17.2132 9.32849C18.3306 10.4459 18.9583 11.9614 18.9583 13.5417C18.9583 15.1219 18.3306 16.6374 17.2132 17.7548C16.0958 18.8722 14.5802 19.5 13 19.5ZM13 17.3333C14.0056 17.3333 14.97 16.9339 15.6811 16.2228C16.3922 15.5117 16.7917 14.5473 16.7917 13.5417C16.7917 12.5361 16.3922 11.5716 15.6811 10.8606C14.97 10.1495 14.0056 9.75 13 9.75C11.9944 9.75 11.03 10.1495 10.3189 10.8606C9.6078 11.5716 9.20832 12.5361 9.20832 13.5417C9.20832 14.5473 9.6078 15.5117 10.3189 16.2228C11.03 16.9339 11.9944 17.3333 13 17.3333Z" fill="#52796F"/>
</g>
<defs>
<clipPath id="clip0_1931_60334">
<rect width="26" height="26" fill="white"/>
</clipPath>
</defs>
</svg>
