<svg width="20" height="20" viewBox="0 0 20 20" fill="none" xmlns="http://www.w3.org/2000/svg">
<path d="M10 0C15.523 0 20 4.477 20 10C20 15.523 15.523 20 10 20C4.477 20 0 15.523 0 10C0 4.477 4.477 0 10 0ZM10 5C9.81876 5.00001 9.64366 5.06564 9.50707 5.18477C9.37048 5.30389 9.28165 5.46845 9.257 5.648L9.25 5.75V9.25H5.75C5.55998 9.25006 5.37706 9.32224 5.23821 9.45197C5.09936 9.5817 5.01493 9.7593 5.00197 9.94888C4.98902 10.1385 5.04852 10.3259 5.16843 10.4733C5.28835 10.6207 5.45975 10.7171 5.648 10.743L5.75 10.75H9.25V14.25C9.25006 14.44 9.32224 14.6229 9.45197 14.7618C9.5817 14.9006 9.7593 14.9851 9.94888 14.998C10.1385 15.011 10.3259 14.9515 10.4733 14.8316C10.6207 14.7117 10.7171 14.5402 10.743 14.352L10.75 14.25V10.75H14.25C14.44 10.7499 14.6229 10.6778 14.7618 10.548C14.9006 10.4183 14.9851 10.2407 14.998 10.0511C15.011 9.86154 14.9515 9.67411 14.8316 9.5267C14.7117 9.37929 14.5402 9.2829 14.352 9.257L14.25 9.25H10.75V5.75C10.75 5.55109 10.671 5.36032 10.5303 5.21967C10.3897 5.07902 10.1989 5 10 5Z" fill="#217AC0"/>
</svg>
