<svg width="11" height="11" viewBox="0 0 11 11" fill="none" xmlns="http://www.w3.org/2000/svg">
<g clip-path="url(#clip0_501_156)">
<path d="M8.93754 1.83332H7.56254V1.14582C7.56254 1.08504 7.5384 1.02675 7.49542 0.983778C7.45244 0.940801 7.39415 0.916656 7.33338 0.916656C7.2726 0.916656 7.21431 0.940801 7.17133 0.983778C7.12835 1.02675 7.10421 1.08504 7.10421 1.14582V1.83332H3.89588V1.14582C3.89588 1.08504 3.87174 1.02675 3.82876 0.983778C3.78578 0.940801 3.72749 0.916656 3.66671 0.916656C3.60594 0.916656 3.54765 0.940801 3.50467 0.983778C3.46169 1.02675 3.43755 1.08504 3.43755 1.14582V1.83332H2.06255C1.75877 1.83369 1.46753 1.95452 1.25273 2.16933C1.03792 2.38414 0.917082 2.67537 0.916718 2.97915V8.93748C0.917082 9.24126 1.03792 9.5325 1.25273 9.7473C1.46753 9.96211 1.75877 10.0829 2.06255 10.0833H8.93754C9.24136 10.0831 9.53266 9.96227 9.7475 9.74744C9.96233 9.5326 10.0831 9.2413 10.0834 8.93748V2.97915C10.0831 2.67533 9.96233 2.38403 9.7475 2.1692C9.53266 1.95436 9.24136 1.83356 8.93754 1.83332ZM9.62504 8.93748C9.62504 9.31698 9.31704 9.62498 8.93754 9.62498H2.06255C1.68213 9.62498 1.37505 9.31698 1.37505 8.93748V5.04165H9.62504V8.93748ZM9.62504 4.58332H1.37505V2.97915C1.37505 2.59965 1.68213 2.29165 2.06255 2.29165H3.43755V2.97915C3.43755 3.03993 3.46169 3.09822 3.50467 3.1412C3.54765 3.18418 3.60594 3.20832 3.66671 3.20832C3.72749 3.20832 3.78578 3.18418 3.82876 3.1412C3.87174 3.09822 3.89588 3.03993 3.89588 2.97915V2.29165H7.10421V2.97915C7.10421 3.03993 7.12835 3.09822 7.17133 3.1412C7.21431 3.18418 7.2726 3.20832 7.33338 3.20832C7.39415 3.20832 7.45244 3.18418 7.49542 3.1412C7.5384 3.09822 7.56254 3.03993 7.56254 2.97915V2.29165H8.93754C9.31704 2.29165 9.62504 2.59965 9.62504 2.97915V4.58332Z" fill="#FF7561"/>
</g>
<defs>
<clipPath id="clip0_501_156">
<rect width="10.9286" height="10.9286" fill="white" transform="scale(1.00653)"/>
</clipPath>
</defs>
</svg>
