<svg width="33" height="33" viewBox="0 0 33 33" fill="none" xmlns="http://www.w3.org/2000/svg">
<path d="M16.5 30.25C24.0939 30.25 30.25 24.0939 30.25 16.5C30.25 8.90608 24.0939 2.75 16.5 2.75C8.90608 2.75 2.75 8.90608 2.75 16.5C2.75 24.0939 8.90608 30.25 16.5 30.25Z" fill="#12B76A"/>
<path d="M14.5475 21.4225C14.2725 21.4225 14.0112 21.3125 13.8187 21.12L9.92748 17.2288C9.52873 16.83 9.52873 16.17 9.92748 15.7713C10.3262 15.3725 10.9862 15.3725 11.385 15.7713L14.5475 18.9338L21.615 11.8663C22.0137 11.4675 22.6737 11.4675 23.0725 11.8663C23.4712 12.265 23.4712 12.925 23.0725 13.3238L15.2762 21.12C15.0837 21.3125 14.8225 21.4225 14.5475 21.4225Z" fill="white"/>
</svg>
