<svg width="14" height="14" viewBox="0 0 14 14" fill="none" xmlns="http://www.w3.org/2000/svg">
<path d="M11.375 2.33332H9.62502V1.45832C9.62502 1.38097 9.59429 1.30678 9.53959 1.25208C9.4849 1.19739 9.41071 1.16666 9.33336 1.16666C9.256 1.16666 9.18181 1.19739 9.12712 1.25208C9.07242 1.30678 9.04169 1.38097 9.04169 1.45832V2.33332H4.95837V1.45832C4.95837 1.38097 4.92764 1.30678 4.87294 1.25208C4.81825 1.19739 4.74406 1.16666 4.66671 1.16666C4.58935 1.16666 4.51516 1.19739 4.46047 1.25208C4.40577 1.30678 4.37504 1.38097 4.37504 1.45832V2.33332H2.62505C2.23842 2.33378 1.86775 2.48758 1.59436 2.76096C1.32097 3.03435 1.16718 3.40502 1.16672 3.79165V11.375C1.16718 11.7616 1.32097 12.1322 1.59436 12.4056C1.86775 12.679 2.23842 12.8328 2.62505 12.8333H11.375C11.7617 12.833 12.1324 12.6792 12.4059 12.4058C12.6793 12.1324 12.833 11.7616 12.8333 11.375V3.79165C12.833 3.40497 12.6793 3.03422 12.4059 2.76079C12.1324 2.48737 11.7617 2.33363 11.375 2.33332ZM12.25 11.375C12.25 11.858 11.858 12.2499 11.375 12.2499H2.62505C2.14088 12.2499 1.75005 11.858 1.75005 11.375V6.41664H12.25V11.375ZM12.25 5.83331H1.75005V3.79165C1.75005 3.30865 2.14088 2.91665 2.62505 2.91665H4.37504V3.79165C4.37504 3.869 4.40577 3.94319 4.46047 3.99789C4.51516 4.05258 4.58935 4.08331 4.66671 4.08331C4.74406 4.08331 4.81825 4.05258 4.87294 3.99789C4.92764 3.94319 4.95837 3.869 4.95837 3.79165V2.91665H9.04169V3.79165C9.04169 3.869 9.07242 3.94319 9.12712 3.99789C9.18181 4.05258 9.256 4.08331 9.33336 4.08331C9.41071 4.08331 9.4849 4.05258 9.53959 3.99789C9.59429 3.94319 9.62502 3.869 9.62502 3.79165V2.91665H11.375C11.858 2.91665 12.25 3.30865 12.25 3.79165V5.83331Z" fill="#646464"/>
</svg>
