<svg width="24" height="24" viewBox="0 0 24 24" fill="none" xmlns="http://www.w3.org/2000/svg">
<path d="M9.89062 9.89062C10.4844 9.29688 11.1875 9 12 9C12.8125 9 13.5156 9.29688 14.1094 9.89062C14.7031 10.4844 15 11.1875 15 12C15 12.8125 14.7031 13.5156 14.1094 14.1094C13.5156 14.7031 12.8125 15 12 15C11.1875 15 10.4844 14.7031 9.89062 14.1094C9.29688 13.5156 9 12.8125 9 12C9 11.1875 9.29688 10.4844 9.89062 9.89062ZM8.4375 15.5625C9.4375 16.5312 10.625 17.0156 12 17.0156C13.375 17.0156 14.5469 16.5312 15.5156 15.5625C16.5156 14.5625 17.0156 13.375 17.0156 12C17.0156 10.625 16.5156 9.45312 15.5156 8.48438C14.5469 7.48438 13.375 6.98438 12 6.98438C10.625 6.98438 9.4375 7.48438 8.4375 8.48438C7.46875 9.45312 6.98438 10.625 6.98438 12C6.98438 13.375 7.46875 14.5625 8.4375 15.5625ZM5.29688 6.5625C7.29688 5.1875 9.53125 4.5 12 4.5C14.4688 4.5 16.7031 5.1875 18.7031 6.5625C20.7031 7.9375 22.1406 9.75 23.0156 12C22.1406 14.25 20.7031 16.0625 18.7031 17.4375C16.7031 18.8125 14.4688 19.5 12 19.5C9.53125 19.5 7.29688 18.8125 5.29688 17.4375C3.29688 16.0625 1.85938 14.25 0.984375 12C1.85938 9.75 3.29688 7.9375 5.29688 6.5625Z" fill="#C4C4C4"/>
</svg>
