<svg width="32" height="32" viewBox="0 0 32 32" fill="none" xmlns="http://www.w3.org/2000/svg">
<path d="M24.4013 4.70504C24.2844 4.70534 24.1695 4.67426 24.0688 4.61504C21.295 3.13004 18.8969 2.50004 16.0219 2.50004C13.1613 2.50004 10.445 3.20504 7.97437 4.61504C7.625 4.81254 7.19437 4.67504 6.99187 4.31254C6.90149 4.13758 6.8811 3.93477 6.93485 3.74532C6.98859 3.55586 7.11245 3.39398 7.28125 3.29254C9.94586 1.78128 12.9585 0.991108 16.0219 1.00004C19.0988 1.00004 21.7862 1.70504 24.7337 3.28004C24.9057 3.3746 25.0338 3.53279 25.0904 3.72067C25.1471 3.90856 25.1279 4.11117 25.0369 4.28504C24.9822 4.40849 24.8932 4.51366 24.7806 4.5881C24.6679 4.66254 24.5363 4.70312 24.4013 4.70504ZM3.72687 12.58C3.57676 12.579 3.43059 12.5319 3.30812 12.445C3.14879 12.3266 3.04163 12.151 3.00921 11.9551C2.9768 11.7593 3.02168 11.5585 3.13437 11.395C4.565 9.29505 6.38437 7.64504 8.5525 6.49004C13.0887 4.06254 18.8969 4.04504 23.4475 6.47504C25.615 7.63004 27.435 9.26505 28.8656 11.35C28.9779 11.5136 29.0225 11.7143 28.9901 11.91C28.9577 12.1057 28.8508 12.2813 28.6919 12.4C28.6148 12.4577 28.5266 12.4989 28.433 12.5211C28.3393 12.5433 28.242 12.5461 28.1472 12.5292C28.0525 12.5123 27.9621 12.4762 27.8819 12.423C27.8016 12.3698 27.7331 12.3008 27.6806 12.22C26.3806 10.33 24.7337 8.84504 22.7831 7.81004C18.6369 5.60504 13.3344 5.60504 9.2025 7.82504C7.2375 8.87504 5.59062 10.375 4.29062 12.2625C4.23457 12.3619 4.1524 12.444 4.05303 12.4999C3.95366 12.5559 3.84087 12.5836 3.72687 12.58ZM12.7563 30.6875C12.6608 30.6885 12.5662 30.6688 12.479 30.63C12.3917 30.5912 12.3139 30.5341 12.2506 30.4625C10.9937 29.155 10.3125 28.3125 9.34687 26.5C8.34687 24.655 7.83 22.405 7.83 19.99C7.83 15.535 11.4994 11.905 16.0075 11.905C20.5156 11.905 24.1875 15.535 24.1875 19.99C24.1903 20.0867 24.1738 20.1829 24.1388 20.273C24.1037 20.3631 24.051 20.4453 23.9837 20.5146C23.9163 20.584 23.8357 20.6391 23.7467 20.6767C23.6577 20.7144 23.562 20.7338 23.4653 20.7338C23.3686 20.7338 23.273 20.7144 23.1839 20.6767C23.0949 20.6391 23.0143 20.584 22.947 20.5146C22.8796 20.4453 22.8269 20.3631 22.7919 20.273C22.7569 20.1829 22.7403 20.0867 22.7431 19.99C22.7431 16.36 19.7231 13.405 16.0106 13.405C12.2981 13.405 9.275 16.36 9.275 19.99C9.275 22.15 9.73687 24.145 10.6181 25.765C11.5431 27.49 12.1806 28.225 13.2913 29.395C13.423 29.5406 13.4959 29.73 13.4959 29.9263C13.4959 30.1226 13.423 30.312 13.2913 30.4575C13.1494 30.6006 12.9576 30.6831 12.7563 30.6875ZM23.1156 27.9125C21.3962 27.9125 19.8794 27.4625 18.6369 26.5775C17.5783 25.8356 16.7135 24.8501 16.1153 23.7041C15.5171 22.5582 15.2029 21.2852 15.1994 19.9925C15.1953 19.8951 15.211 19.7979 15.2455 19.7067C15.28 19.6155 15.3325 19.5323 15.4 19.4619C15.4675 19.3915 15.5485 19.3356 15.6382 19.2973C15.7279 19.2591 15.8244 19.2394 15.9219 19.2394C16.0194 19.2394 16.1159 19.2591 16.2055 19.2973C16.2952 19.3356 16.3762 19.3915 16.4437 19.4619C16.5112 19.5323 16.5638 19.6155 16.5983 19.7067C16.6327 19.7979 16.6484 19.8951 16.6444 19.9925C16.6468 21.0426 16.9029 22.0764 17.3908 23.0062C17.8788 23.9359 18.5841 24.734 19.4469 25.3325C20.4725 26.0525 21.6719 26.395 23.1169 26.395C23.6201 26.3861 24.1218 26.3359 24.6169 26.245C25.0069 26.17 25.3825 26.44 25.4544 26.86C25.491 27.0539 25.4492 27.2543 25.3383 27.4174C25.2273 27.5805 25.0562 27.6929 24.8625 27.73C24.287 27.8438 23.7022 27.904 23.1156 27.91V27.9125ZM20.2113 31C20.1478 30.9974 20.0849 30.9873 20.0238 30.97C17.7263 30.31 16.2238 29.425 14.6488 27.82C12.6256 25.735 11.5138 22.96 11.5138 19.99C11.5138 17.56 13.5075 15.58 15.9631 15.58C18.4188 15.58 20.4131 17.56 20.4131 19.99C20.4131 21.595 21.7569 22.9 23.4181 22.9C25.0794 22.9 26.4231 21.595 26.4231 19.99C26.4231 14.335 21.7275 9.74504 15.9487 9.74504C11.8456 9.74504 8.08937 12.115 6.39937 15.79C5.83687 17.005 5.54687 18.43 5.54687 19.99C5.54687 21.16 5.6475 23.005 6.51437 25.405C6.65937 25.795 6.47125 26.23 6.09562 26.365C6.00636 26.399 5.91114 26.4146 5.81569 26.4109C5.72024 26.4072 5.62653 26.3842 5.54019 26.3433C5.45385 26.3025 5.37666 26.2446 5.31326 26.1731C5.24986 26.1017 5.20155 26.0181 5.17125 25.9275C4.47417 24.0255 4.11706 22.0158 4.11625 19.99C4.11625 18.19 4.44875 16.5525 5.09875 15.13C7.02062 10.9425 11.2825 8.23004 15.9487 8.23004C22.5225 8.23004 27.8681 13.495 27.8681 19.975C27.8681 22.405 25.8744 24.385 23.4181 24.385C20.9619 24.385 18.9681 22.405 18.9681 19.975C18.9687 18.37 17.625 17.0625 15.9637 17.0625C14.3025 17.0625 12.9587 18.3675 12.9587 19.9725C12.9587 22.535 13.9125 24.9375 15.6606 26.7375C17.0356 28.1475 18.3481 28.925 20.385 29.5125C20.775 29.6175 20.9919 30.0375 20.8906 30.4275C20.8591 30.5859 20.7747 30.7288 20.6512 30.8328C20.5278 30.9368 20.3726 30.9958 20.2113 31Z" fill="#217AC0"/>
</svg>
