<svg width="17" height="17" viewBox="0 0 17 17" fill="none" xmlns="http://www.w3.org/2000/svg">
<path d="M12.24 6.17667C12.3395 6.27628 12.3953 6.41131 12.3953 6.55209C12.3953 6.69287 12.3395 6.8279 12.24 6.92751L10.8233 8.34417C10.7237 8.44366 10.5887 8.49954 10.4479 8.49954C10.3071 8.49954 10.1721 8.44366 10.0725 8.34417L9.36414 7.63584C9.31195 7.5872 9.27009 7.52855 9.24105 7.46339C9.21201 7.39822 9.1964 7.32787 9.19514 7.25654C9.19388 7.18521 9.20701 7.11436 9.23372 7.04821C9.26044 6.98206 9.30021 6.92197 9.35066 6.87152C9.40111 6.82107 9.4612 6.7813 9.52735 6.75459C9.5935 6.72787 9.66435 6.71474 9.73568 6.716C9.80701 6.71726 9.87736 6.73287 9.94253 6.76191C10.0077 6.79095 10.0663 6.83281 10.115 6.88501L10.4479 7.21792L11.4891 6.17667C11.5888 6.07719 11.7238 6.02131 11.8646 6.02131C12.0053 6.02131 12.1404 6.07719 12.24 6.17667ZM12.24 10.8233C12.2922 10.7747 12.334 10.7161 12.3631 10.6509C12.3921 10.5857 12.4077 10.5154 12.409 10.444C12.4102 10.3727 12.3971 10.3019 12.3704 10.2357C12.3437 10.1696 12.3039 10.1095 12.2535 10.059C12.203 10.0086 12.1429 9.9688 12.0768 9.94209C12.0106 9.91537 11.9398 9.90224 11.8684 9.9035C11.7971 9.90476 11.7268 9.92037 11.6616 9.94941C11.5964 9.97845 11.5378 10.0203 11.4891 10.0725L10.4479 11.1138L10.115 10.7808C10.0663 10.7286 10.0077 10.6868 9.94253 10.6577C9.87736 10.6287 9.80701 10.6131 9.73568 10.6118C9.66435 10.6106 9.5935 10.6237 9.52735 10.6504C9.4612 10.6771 9.40111 10.7169 9.35066 10.7674C9.30021 10.8178 9.26044 10.8779 9.23372 10.944C9.20701 11.0102 9.19388 11.081 9.19514 11.1524C9.1964 11.2237 9.21201 11.2941 9.24105 11.3592C9.27009 11.4244 9.31195 11.483 9.36414 11.5317L10.0725 12.24C10.1721 12.3395 10.3071 12.3954 10.4479 12.3954C10.5887 12.3954 10.7237 12.3395 10.8233 12.24L12.24 10.8233ZM4.95831 7.26042C4.95831 7.11953 5.01428 6.9844 5.11391 6.88477C5.21354 6.78514 5.34867 6.72917 5.48956 6.72917H7.96873C8.10962 6.72917 8.24475 6.78514 8.34438 6.88477C8.44401 6.9844 8.49998 7.11953 8.49998 7.26042C8.49998 7.40132 8.44401 7.53644 8.34438 7.63607C8.24475 7.7357 8.10962 7.79167 7.96873 7.79167H5.48956C5.34867 7.79167 5.21354 7.7357 5.11391 7.63607C5.01428 7.53644 4.95831 7.40132 4.95831 7.26042ZM5.48956 10.625C5.34867 10.625 5.21354 10.681 5.11391 10.7806C5.01428 10.8802 4.95831 11.0154 4.95831 11.1563C4.95831 11.2972 5.01428 11.4323 5.11391 11.5319C5.21354 11.6315 5.34867 11.6875 5.48956 11.6875H7.96873C8.10962 11.6875 8.24475 11.6315 8.34438 11.5319C8.44401 11.4323 8.49998 11.2972 8.49998 11.1563C8.49998 11.0154 8.44401 10.8802 8.34438 10.7806C8.24475 10.681 8.10962 10.625 7.96873 10.625H5.48956ZM11.3234 2.83334C11.2798 2.44375 11.0942 2.08388 10.802 1.82253C10.5098 1.56118 10.1316 1.41668 9.73956 1.41667H7.2604C6.86838 1.41668 6.49011 1.56118 6.19793 1.82253C5.90574 2.08388 5.72012 2.44375 5.67656 2.83334H4.42706C4.00437 2.83334 3.599 3.00125 3.30011 3.30014C3.00123 3.59902 2.83331 4.0044 2.83331 4.42709V13.9896C2.83331 14.4123 3.00123 14.8177 3.30011 15.1165C3.599 15.4154 4.00437 15.5833 4.42706 15.5833H12.5729C12.7822 15.5833 12.9894 15.5421 13.1828 15.462C13.3762 15.3819 13.5519 15.2645 13.6998 15.1165C13.8478 14.9685 13.9652 14.7929 14.0453 14.5995C14.1254 14.4061 14.1666 14.1989 14.1666 13.9896V4.42709C14.1666 4.21779 14.1254 4.01055 14.0453 3.81719C13.9652 3.62382 13.8478 3.44813 13.6998 3.30014C13.5519 3.15214 13.3762 3.03475 13.1828 2.95466C12.9894 2.87456 12.7822 2.83334 12.5729 2.83334H11.3234ZM7.2604 4.60417H9.73956C10.2921 4.60417 10.7787 4.32296 11.0649 3.89584H12.5729C12.7138 3.89584 12.8489 3.95181 12.9485 4.05144C13.0482 4.15107 13.1041 4.28619 13.1041 4.42709V13.9896C13.1041 14.1305 13.0482 14.2656 12.9485 14.3652C12.8489 14.4649 12.7138 14.5208 12.5729 14.5208H4.42706C4.28617 14.5208 4.15104 14.4649 4.05141 14.3652C3.95178 14.2656 3.89581 14.1305 3.89581 13.9896V4.42709C3.89581 4.28619 3.95178 4.15107 4.05141 4.05144C4.15104 3.95181 4.28617 3.89584 4.42706 3.89584H5.9351C6.22127 4.32296 6.7079 4.60417 7.2604 4.60417ZM7.2604 2.47917H9.73956C9.88046 2.47917 10.0156 2.53514 10.1152 2.63477C10.2148 2.7344 10.2708 2.86953 10.2708 3.01042C10.2708 3.15132 10.2148 3.28644 10.1152 3.38607C10.0156 3.4857 9.88046 3.54167 9.73956 3.54167H7.2604C7.1195 3.54167 6.98437 3.4857 6.88475 3.38607C6.78512 3.28644 6.72915 3.15132 6.72915 3.01042C6.72915 2.86953 6.78512 2.7344 6.88475 2.63477C6.98437 2.53514 7.1195 2.47917 7.2604 2.47917Z" fill="white"/>
</svg>
