<svg width="32" height="31" viewBox="0 0 32 31" fill="none" xmlns="http://www.w3.org/2000/svg">
<g filter="url(#filter0_d_0_617)">
<path d="M24.3106 22.1607H17.7712V16.7306V16.2306H17.2712H14.3062H13.8062V16.7306V22.1607H7.69042C7.49798 22.1607 7.34327 22.006 7.34327 21.8136V14.0383V13.5383H6.84327H5.69431C5.03594 13.5383 4.5 13.0023 4.5 12.344C4.5 12.0274 4.6267 11.7229 4.85113 11.4984C4.85117 11.4984 4.85121 11.4983 4.85126 11.4983L15.7556 0.601851L15.7561 0.601376C15.7882 0.569241 15.8263 0.543746 15.8682 0.526349C15.9101 0.508954 15.9551 0.5 16.0005 0.5C16.0459 0.5 16.0909 0.508954 16.1328 0.526349C16.1747 0.543744 16.2128 0.569239 16.2449 0.601376L16.2454 0.601851L27.1497 11.4983C27.6164 11.965 27.6164 12.7211 27.1517 13.1877L27.1509 13.1885C26.9283 13.413 26.6251 13.5383 26.3067 13.5383H25.1577H24.6577V14.0383V21.8136C24.6577 22.006 24.503 22.1607 24.3106 22.1607Z" stroke="#217AC0" shape-rendering="crispEdges"/>
</g>
<defs>
<filter id="filter0_d_0_617" x="0" y="0" width="32" height="30.6608" filterUnits="userSpaceOnUse" color-interpolation-filters="sRGB">
<feFlood flood-opacity="0" result="BackgroundImageFix"/>
<feColorMatrix in="SourceAlpha" type="matrix" values="0 0 0 0 0 0 0 0 0 0 0 0 0 0 0 0 0 0 127 0" result="hardAlpha"/>
<feOffset dy="4"/>
<feGaussianBlur stdDeviation="2"/>
<feComposite in2="hardAlpha" operator="out"/>
<feColorMatrix type="matrix" values="0 0 0 0 0 0 0 0 0 0 0 0 0 0 0 0 0 0 0.25 0"/>
<feBlend mode="normal" in2="BackgroundImageFix" result="effect1_dropShadow_0_617"/>
<feBlend mode="normal" in="SourceGraphic" in2="effect1_dropShadow_0_617" result="shape"/>
</filter>
</defs>
</svg>
