<svg width="24" height="24" viewBox="0 0 24 24" fill="none" xmlns="http://www.w3.org/2000/svg">
<path d="M14.3149 10.1311C13.6297 10.589 12.8241 10.8333 12 10.8333C10.8949 10.8333 9.8351 10.3943 9.0537 9.61295C8.2723 8.83155 7.83331 7.77174 7.83331 6.66667C7.83331 5.84258 8.07768 5.037 8.53552 4.35179C8.99336 3.66659 9.64411 3.13254 10.4055 2.81717C11.1668 2.50181 12.0046 2.41929 12.8129 2.58006C13.6211 2.74084 14.3635 3.13767 14.9463 3.72039C15.529 4.30311 15.9258 5.04554 16.0866 5.85379C16.2474 6.66205 16.1648 7.49982 15.8495 8.26118C15.5341 9.02254 15.0001 9.67329 14.3149 10.1311ZM14.1297 3.47937C13.4993 3.05816 12.7581 2.83334 12 2.83334C10.9833 2.83334 10.0083 3.2372 9.2894 3.95609C8.57051 4.67498 8.16665 5.65001 8.16665 6.66667C8.16665 7.42483 8.39147 8.16597 8.81268 8.79635C9.23389 9.42674 9.83258 9.91807 10.533 10.2082C11.2335 10.4983 12.0042 10.5743 12.7478 10.4263C13.4914 10.2784 14.1745 9.91335 14.7106 9.37724C15.2467 8.84114 15.6117 8.15811 15.7597 7.41452C15.9076 6.67092 15.8317 5.90017 15.5415 5.19972C15.2514 4.49927 14.7601 3.90058 14.1297 3.47937Z" fill="#F3FAFF" stroke="#217AC0"/>
<path d="M20.3133 16.2467C20.5427 16.4953 20.669 16.8218 20.6666 17.1601V20.6667C20.6666 21.0203 20.5262 21.3595 20.2761 21.6095C20.0261 21.8596 19.6869 22.0001 19.3333 22.0001H4.66665C4.31303 22.0001 3.97389 21.8596 3.72384 21.6095C3.47379 21.3595 3.33331 21.0203 3.33331 20.6667V17.1601C3.33279 16.8209 3.46152 16.4943 3.69331 16.2467M20.3133 16.2467C19.2442 15.1167 17.9558 14.2167 16.527 13.6015C15.0982 12.9864 13.5589 12.6691 12.0033 12.6691C10.4477 12.6691 8.90844 12.9864 7.47962 13.6015C6.0508 14.2167 4.76244 15.1167 3.69331 16.2467M20.3133 16.2467L19.9458 16.5858C19.9465 16.5864 19.9471 16.5871 19.9477 16.5878M20.3133 16.2467L19.9501 16.5904C19.9493 16.5895 19.9485 16.5887 19.9477 16.5878M3.69331 16.2467L4.05651 16.5904C4.05685 16.59 4.05718 16.5897 4.05751 16.5893M3.69331 16.2467L4.05831 16.5884C4.05805 16.5887 4.05778 16.589 4.05751 16.5893M4.05751 16.5893C5.07972 15.5092 6.31141 14.6488 7.67733 14.0608C9.04371 13.4725 10.5157 13.1691 12.0033 13.1691C13.4909 13.1691 14.9629 13.4725 16.3293 14.0608C17.6946 14.6486 18.9258 15.5084 19.9477 16.5878M4.05751 16.5893C3.91315 16.7439 3.83299 16.9477 3.83331 17.1593L3.83332 17.1601L3.83331 20.6667C3.83331 20.8877 3.92111 21.0997 4.07739 21.256C4.23367 21.4123 4.44563 21.5001 4.66665 21.5001H19.3333C19.5543 21.5001 19.7663 21.4123 19.9226 21.256C20.0789 21.0997 20.1666 20.8877 20.1666 20.6667V17.1601V17.1566C20.1681 16.9461 20.0899 16.7429 19.9477 16.5878M19.3333 21.1667H19.8333V20.6667V17.1534V16.9538L19.6959 16.8091C18.7043 15.765 17.5107 14.9336 16.1877 14.3655C14.8647 13.7973 13.4398 13.5044 12 13.5044C10.5601 13.5044 9.13531 13.7973 7.81227 14.3655C6.48923 14.9336 5.29562 15.765 4.30409 16.8091L4.16665 16.9538V17.1534V20.6667V21.1667H4.66665H19.3333Z" fill="#F3FAFF" stroke="#217AC0"/>
</svg>
