<svg width="24" height="24" viewBox="0 0 24 24" fill="none" xmlns="http://www.w3.org/2000/svg">
<path d="M8.50205 3.6C8.62618 3.24891 8.85615 2.94496 9.16026 2.73004C9.46437 2.51511 9.82766 2.39981 10.2 2.4H13.8C14.1724 2.39981 14.5357 2.51511 14.8398 2.73004C15.144 2.94496 15.3739 3.24891 15.4981 3.6H17.4001C17.8774 3.6 18.3353 3.78964 18.6728 4.12721C19.0104 4.46478 19.2001 4.92261 19.2001 5.4V17.9808C18.6849 18.2371 18.2647 18.6507 18.0001 19.1616V5.4C18.0001 5.24087 17.9368 5.08826 17.8243 4.97574C17.7118 4.86322 17.5592 4.8 17.4001 4.8H15.4981C15.3739 5.1511 15.144 5.45505 14.8398 5.66997C14.5357 5.88489 14.1724 6.0002 13.8 6H10.2C9.82766 6.0002 9.46437 5.88489 9.16026 5.66997C8.85615 5.45505 8.62618 5.1511 8.50205 4.8H6.60005C6.44092 4.8 6.28831 4.86322 6.17579 4.97574C6.06326 5.08826 6.00005 5.24087 6.00005 5.4V19.8C6.00005 19.9591 6.06326 20.1117 6.17579 20.2243C6.28831 20.3368 6.44092 20.4 6.60005 20.4H8.10005C8.10005 20.832 8.20085 21.2388 8.38085 21.6H6.60005C6.12266 21.6 5.66482 21.4104 5.32726 21.0728C4.98969 20.7352 4.80005 20.2774 4.80005 19.8V5.4C4.80005 4.92261 4.98969 4.46478 5.32726 4.12721C5.66482 3.78964 6.12266 3.6 6.60005 3.6H8.50205ZM10.2 3.6C10.0409 3.6 9.88831 3.66322 9.77578 3.77574C9.66326 3.88826 9.60005 4.04087 9.60005 4.2C9.60005 4.35913 9.66326 4.51174 9.77578 4.62427C9.88831 4.73679 10.0409 4.8 10.2 4.8H13.8C13.9592 4.8 14.1118 4.73679 14.2243 4.62427C14.3368 4.51174 14.4001 4.35913 14.4001 4.2C14.4001 4.04087 14.3368 3.88826 14.2243 3.77574C14.1118 3.66322 13.9592 3.6 13.8 3.6H10.2ZM12.3 20.4C12.3 20.7978 12.142 21.1794 11.8607 21.4607C11.5794 21.742 11.1979 21.9 10.8 21.9C10.4022 21.9 10.0207 21.742 9.73939 21.4607C9.45808 21.1794 9.30005 20.7978 9.30005 20.4C9.30005 20.0022 9.45808 19.6206 9.73939 19.3393C10.0207 19.058 10.4022 18.9 10.8 18.9C11.1979 18.9 11.5794 19.058 11.8607 19.3393C12.142 19.6206 12.3 20.0022 12.3 20.4ZM15.6 21.9C15.9979 21.9 16.3794 21.742 16.6607 21.4607C16.942 21.1794 17.1001 20.7978 17.1001 20.4C17.1001 20.0022 16.942 19.6206 16.6607 19.3393C16.3794 19.058 15.9979 18.9 15.6 18.9C15.2022 18.9 14.8207 19.058 14.5394 19.3393C14.2581 19.6206 14.1 20.0022 14.1 20.4C14.1 20.7978 14.2581 21.1794 14.5394 21.4607C14.8207 21.742 15.2022 21.9 15.6 21.9ZM20.4001 21.9C20.7979 21.9 21.1794 21.742 21.4607 21.4607C21.742 21.1794 21.9001 20.7978 21.9001 20.4C21.9001 20.0022 21.742 19.6206 21.4607 19.3393C21.1794 19.058 20.7979 18.9 20.4001 18.9C20.0022 18.9 19.6207 19.058 19.3394 19.3393C19.0581 19.6206 18.9001 20.0022 18.9001 20.4C18.9001 20.7978 19.0581 21.1794 19.3394 21.4607C19.6207 21.742 20.0022 21.9 20.4001 21.9Z" fill="#B1B0B0"/>
</svg>
