<svg width="24" height="23" viewBox="0 0 24 23" fill="none" xmlns="http://www.w3.org/2000/svg">
<path d="M20.3106 22.1607H13.7712V16.7306V16.2306H13.2712H10.3062H9.80618V16.7306V22.1607H3.69042C3.49798 22.1607 3.34327 22.006 3.34327 21.8136V14.0383V13.5383H2.84327H1.69431C1.03594 13.5383 0.5 13.0023 0.5 12.344C0.5 12.0274 0.626696 11.7229 0.851129 11.4984C0.851172 11.4984 0.851215 11.4983 0.851257 11.4983L11.7556 0.601851L11.7561 0.601376C11.7882 0.569241 11.8263 0.543746 11.8682 0.526349C11.9101 0.508954 11.9551 0.5 12.0005 0.5C12.0459 0.5 12.0909 0.508954 12.1328 0.526349C12.1747 0.543744 12.2128 0.569239 12.2449 0.601376L12.2454 0.601851L23.1497 11.4983C23.6164 11.965 23.6164 12.7211 23.1517 13.1877L23.1509 13.1885C22.9283 13.413 22.6251 13.5383 22.3067 13.5383H21.1577H20.6577V14.0383V21.8136C20.6577 22.006 20.503 22.1607 20.3106 22.1607Z" stroke="#217AC0"/>
</svg>
