<svg width="24" height="24" viewBox="0 0 24 24" fill="none" xmlns="http://www.w3.org/2000/svg">
<path d="M14.3149 10.1311C13.6297 10.589 12.8241 10.8333 12 10.8333C10.895 10.8333 9.83516 10.3943 9.05376 9.61295C8.27236 8.83155 7.83337 7.77174 7.83337 6.66667C7.83337 5.84258 8.07774 5.037 8.53558 4.35179C8.99342 3.66659 9.64417 3.13254 10.4055 2.81717C11.1669 2.50181 12.0047 2.41929 12.8129 2.58006C13.6212 2.74084 14.3636 3.13767 14.9463 3.72039C15.529 4.30311 15.9259 5.04554 16.0866 5.85379C16.2474 6.66205 16.1649 7.49982 15.8495 8.26118C15.5342 9.02254 15.0001 9.67329 14.3149 10.1311ZM14.1297 3.47937C13.4993 3.05816 12.7582 2.83334 12 2.83334C10.9834 2.83334 10.0084 3.2372 9.28946 3.95609C8.57058 4.67498 8.16671 5.65001 8.16671 6.66667C8.16671 7.42483 8.39153 8.16597 8.81274 8.79635C9.23395 9.42674 9.83264 9.91807 10.5331 10.2082C11.2335 10.4983 12.0043 10.5743 12.7479 10.4263C13.4915 10.2784 14.1745 9.91335 14.7106 9.37724C15.2467 8.84114 15.6118 8.15811 15.7597 7.41452C15.9076 6.67092 15.8317 5.90017 15.5416 5.19972C15.2514 4.49927 14.7601 3.90058 14.1297 3.47937Z" fill="#217AC0" stroke="#217AC0"/>
<path d="M20.3134 16.2467C20.5427 16.4953 20.669 16.8218 20.6667 17.1601V20.6667C20.6667 21.0203 20.5262 21.3595 20.2762 21.6095C20.0261 21.8596 19.687 22.0001 19.3334 22.0001H4.66671C4.31309 22.0001 3.97395 21.8596 3.7239 21.6095C3.47385 21.3595 3.33337 21.0203 3.33337 20.6667V17.1601C3.33285 16.8209 3.46158 16.4943 3.69338 16.2467M20.3134 16.2467C19.2442 15.1167 17.9559 14.2167 16.5271 13.6015C15.0982 12.9864 13.559 12.6691 12.0034 12.6691C10.4478 12.6691 8.9085 12.9864 7.47968 13.6015C6.05086 14.2167 4.7625 15.1167 3.69338 16.2467M20.3134 16.2467L19.9459 16.5858C19.9465 16.5864 19.9471 16.5871 19.9478 16.5878M20.3134 16.2467L19.9502 16.5904C19.9494 16.5895 19.9486 16.5887 19.9478 16.5878M3.69338 16.2467L4.05657 16.5904C4.05691 16.59 4.05724 16.5897 4.05758 16.5893M3.69338 16.2467L4.05838 16.5884C4.05811 16.5887 4.05784 16.589 4.05758 16.5893M4.05758 16.5893C5.07978 15.5092 6.31147 14.6488 7.6774 14.0608C9.04377 13.4725 10.5158 13.1691 12.0034 13.1691C13.491 13.1691 14.963 13.4725 16.3294 14.0608C17.6947 14.6486 18.9258 15.5084 19.9478 16.5878M4.05758 16.5893C3.91321 16.7439 3.83305 16.9477 3.83338 17.1593L3.83338 17.1601L3.83338 20.6667C3.83338 20.8877 3.92117 21.0997 4.07745 21.256C4.23373 21.4123 4.44569 21.5001 4.66671 21.5001H19.3334C19.5544 21.5001 19.7664 21.4123 19.9226 21.256C20.0789 21.0997 20.1667 20.8877 20.1667 20.6667V17.1601V17.1566C20.1682 16.9461 20.0899 16.7429 19.9478 16.5878M19.3334 21.1667H19.8334V20.6667V17.1534V16.9538L19.6959 16.8091C18.7044 15.765 17.5108 14.9336 16.1878 14.3655C14.8647 13.7973 13.4399 13.5044 12 13.5044C10.5602 13.5044 9.13537 13.7973 7.81233 14.3655C6.48929 14.9336 5.29568 15.765 4.30415 16.8091L4.16671 16.9538V17.1534V20.6667V21.1667H4.66671H19.3334Z" fill="#217AC0" stroke="#217AC0"/>
</svg>
