<svg width="24" height="23" viewBox="0 0 24 23" fill="none" xmlns="http://www.w3.org/2000/svg">
<path d="M23.5033 11.1447L12.5988 0.248169C12.5203 0.1695 12.427 0.107087 12.3244 0.0645032C12.2217 0.0219193 12.1116 0 12.0005 0C11.8894 0 11.7793 0.0219193 11.6766 0.0645032C11.574 0.107087 11.4807 0.1695 11.4022 0.248169L0.497704 11.1447C0.180021 11.4624 0 11.8939 0 12.344C0 13.2785 0.759793 14.0383 1.69431 14.0383H2.84327V21.8136C2.84327 22.2822 3.22184 22.6607 3.69042 22.6607H10.3062V16.7306H13.2712V22.6607H20.3106C20.7792 22.6607 21.1577 22.2822 21.1577 21.8136V14.0383H22.3067C22.7567 14.0383 23.1882 13.8609 23.5059 13.5406C24.1651 12.8787 24.1651 11.8066 23.5033 11.1447Z" fill="#217AC0"/>
</svg>
